<?xml version="1.0" encoding="utf-8"?>
<!-- Generator: Adobe Illustrator 22.1.0, SVG Export Plug-In . SVG Version: 6.00 Build 0)  -->
<svg width='24px' version="1.1" id="Layer_1" xmlns="http://www.w3.org/2000/svg" xmlns:xlink="http://www.w3.org/1999/xlink" x="0px" y="0px"
	 viewBox="0 0 16 16" style="enable-background:new 0 0 16 16;" xml:space="preserve">
<style type="text/css">
	.st0{fill:#2E416D;}
</style>
<g>
	<g>
		<g>
			<g>
				<g>
					<path class="st0" d="M5.3,4.9C5.2,4.9,5.1,4.9,5,4.9L2.9,7c-0.1,0.1-0.1,0.2,0,0.3l0.4,0.4c0.1,0.1,0.2,0.1,0.3,0l2.1-2.1
						c0.1-0.1,0.1-0.2,0-0.3L5.3,4.9z"/>
				</g>
				<g>
					<path class="st0" d="M4.3,9.4c0.1-0.1,0.1-0.2,0-0.3L2,6.8C1.9,6.7,1.9,6.6,2,6.5l1.1-1.1c0.1-0.1,0.2-0.1,0.3,0l0.2,0.2
						c0.1,0.1,0.2,0.1,0.3,0l0.4-0.4C4.4,5.2,4.4,5,4.3,5L4.1,4.7C4,4.7,4,4.5,4.1,4.5l0.4-0.4C4.5,4,4.7,4,4.7,4.1l1.8,1.8
						c0.1,0.1,0.1,0.2,0,0.3L6.1,6.5C6,6.6,5.9,6.6,5.8,6.5L5.6,6.3c-0.1-0.1-0.2-0.1-0.3,0L4.9,6.7C4.9,6.8,4.9,6.9,4.9,7l0.8,0.8
						c0.1,0.1,0.2,0.1,0.2,0.2c0,0,0.1,0,0.1,0s0,0,0,0s0.1-0.1,0.1-0.1l1.6-1.6C7.8,6.1,7.9,6,7.9,6s0-0.1,0-0.1c0,0,0,0,0,0
						c0,0-0.1-0.1-0.1-0.1L5.4,3.4c-0.1-0.1-0.1-0.2,0-0.3L6.5,2C6.6,2,6.7,2,6.8,2L7,2.3c0.1,0.1,0.2,0.1,0.3,0l0.4-0.4
						c0.1-0.1,0.1-0.2,0-0.3L6.8,0.7C6.7,0.6,6.6,0.6,6.6,0.5c0,0-0.1,0.1-0.2,0.2L0.7,6.4C0.6,6.5,0.5,6.6,0.5,6.6c0,0,0,0,0,0
						c0,0,0,0,0,0c0,0,0,0,0,0c0,0,0,0,0,0c0,0,0.1,0.1,0.2,0.2l2.9,2.9c0.1,0.1,0.2,0.1,0.3,0L4.3,9.4z"/>
				</g>
			</g>
			<g>
				<g>
					<path class="st0" d="M4.9,10.7c-0.1,0.1-0.1,0.2,0,0.3L7,13.1c0.1,0.1,0.2,0.1,0.3,0l0.4-0.4c0.1-0.1,0.1-0.2,0-0.3l-2.1-2.1
						c-0.1-0.1-0.2-0.1-0.3,0L4.9,10.7z"/>
				</g>
				<g>
					<path class="st0" d="M9.3,11.7c-0.1-0.1-0.2-0.1-0.3,0L6.8,14c-0.1,0.1-0.2,0.1-0.3,0l-1.1-1.1c-0.1-0.1-0.1-0.2,0-0.3l0.2-0.2
						c0.1-0.1,0.1-0.2,0-0.3l-0.4-0.4c-0.1-0.1-0.2-0.1-0.3,0l-0.2,0.2c-0.1,0.1-0.2,0.1-0.3,0l-0.4-0.4c-0.1-0.1-0.1-0.2,0-0.3
						l1.8-1.8c0.1-0.1,0.2-0.1,0.3,0l0.4,0.4c0.1,0.1,0.1,0.2,0,0.3l-0.2,0.2c-0.1,0.1-0.1,0.2,0,0.3l0.4,0.4c0.1,0.1,0.2,0.1,0.3,0
						l0.8-0.8c0.1-0.1,0.1-0.2,0.2-0.2c0,0,0-0.1,0-0.1c0,0,0,0,0,0S7.8,9.9,7.7,9.8L6.1,8.2C6.1,8.2,6,8.1,6,8.1c0,0-0.1,0-0.1,0
						c0,0,0,0,0,0c0,0-0.1,0.1-0.1,0.1l-2.4,2.3c-0.1,0.1-0.2,0.1-0.3,0L2,9.5C1.9,9.5,1.9,9.3,2,9.3L2.3,9c0.1-0.1,0.1-0.2,0-0.3
						L1.9,8.3c-0.1-0.1-0.2-0.1-0.3,0L0.7,9.2C0.6,9.3,0.5,9.4,0.5,9.4c0,0,0.1,0.1,0.2,0.2l5.7,5.7c0.1,0.1,0.2,0.2,0.2,0.2
						c0,0,0,0,0,0c0,0,0,0,0,0c0,0,0,0,0,0c0,0,0,0,0,0c0,0,0.1-0.1,0.2-0.2l2.9-2.9c0.1-0.1,0.1-0.2,0-0.3L9.3,11.7z"/>
				</g>
			</g>
		</g>
		<g>
			<g>
				<g>
					<path class="st0" d="M10.7,11.1c0.1,0.1,0.2,0.1,0.3,0L13.1,9c0.1-0.1,0.1-0.2,0-0.3l-0.4-0.4c-0.1-0.1-0.2-0.1-0.3,0l-2.1,2.1
						c-0.1,0.1-0.1,0.2,0,0.3L10.7,11.1z"/>
				</g>
				<g>
					<path class="st0" d="M11.7,6.6c-0.1,0.1-0.1,0.2,0,0.3L14,9.2c0.1,0.1,0.1,0.2,0,0.3l-1.1,1.1c-0.1,0.1-0.2,0.1-0.3,0l-0.2-0.2
						c-0.1-0.1-0.2-0.1-0.3,0l-0.4,0.4c-0.1,0.1-0.1,0.2,0,0.3l0.2,0.2c0.1,0.1,0.1,0.2,0,0.3l-0.4,0.4c-0.1,0.1-0.2,0.1-0.3,0
						l-1.8-1.8c-0.1-0.1-0.1-0.2,0-0.3l0.4-0.4c0.1-0.1,0.2-0.1,0.3,0l0.2,0.2c0.1,0.1,0.2,0.1,0.3,0l0.4-0.4c0.1-0.1,0.1-0.2,0-0.3
						l-0.8-0.8c-0.1-0.1-0.2-0.1-0.2-0.2c0,0-0.1,0-0.1,0c0,0,0,0,0,0c0,0-0.1,0.1-0.1,0.1L8.2,9.8C8.2,9.9,8.1,10,8.1,10
						s0,0.1,0,0.1c0,0,0,0,0,0c0,0,0.1,0.1,0.1,0.1l2.3,2.4c0.1,0.1,0.1,0.2,0,0.3L9.5,14C9.4,14,9.3,14,9.2,14L9,13.7
						c-0.1-0.1-0.2-0.1-0.3,0l-0.4,0.4c-0.1,0.1-0.1,0.2,0,0.3l0.9,0.9c0.1,0.1,0.2,0.1,0.2,0.2c0,0,0.1-0.1,0.2-0.2l5.7-5.7
						c0.1-0.1,0.2-0.2,0.2-0.2c0,0,0,0,0,0c0,0,0,0,0,0c0,0,0,0,0,0c0,0,0,0,0,0c0,0-0.1-0.1-0.2-0.2l-2.9-2.9
						c-0.1-0.1-0.2-0.1-0.3,0L11.7,6.6z"/>
				</g>
			</g>
			<g>
				<g>
					<path class="st0" d="M11.1,5.3c0.1-0.1,0.1-0.2,0-0.3L9,2.9c-0.1-0.1-0.2-0.1-0.3,0L8.3,3.3c-0.1,0.1-0.1,0.2,0,0.3l2.1,2.1
						c0.1,0.1,0.2,0.1,0.3,0L11.1,5.3z"/>
				</g>
				<g>
					<path class="st0" d="M6.7,4.3c0.1,0.1,0.2,0.1,0.3,0L9.2,2c0.1-0.1,0.2-0.1,0.3,0l1.1,1.1c0.1,0.1,0.1,0.2,0,0.3l-0.2,0.2
						c-0.1,0.1-0.1,0.2,0,0.3l0.4,0.4c0.1,0.1,0.2,0.1,0.3,0l0.2-0.2c0.1-0.1,0.2-0.1,0.3,0l0.4,0.4c0.1,0.1,0.1,0.2,0,0.3l-1.8,1.8
						c-0.1,0.1-0.2,0.1-0.3,0L9.5,6.1C9.4,6,9.4,5.9,9.5,5.8l0.2-0.2c0.1-0.1,0.1-0.2,0-0.3L9.3,4.9C9.2,4.8,9.1,4.8,9,4.9L8.2,5.7
						C8.1,5.8,8.1,5.9,8.1,5.9c0,0,0,0.1,0,0.1c0,0,0,0,0,0c0,0,0.1,0.1,0.1,0.1l1.6,1.6C9.9,7.8,10,7.9,10,7.9c0,0,0.1,0,0.1,0
						c0,0,0,0,0,0c0,0,0.1-0.1,0.1-0.1l2.4-2.3c0.1-0.1,0.2-0.1,0.3,0L14,6.5c0.1,0.1,0.1,0.2,0,0.3L13.7,7c-0.1,0.1-0.1,0.2,0,0.3
						l0.4,0.4c0.1,0.1,0.2,0.1,0.3,0l0.9-0.9c0.1-0.1,0.1-0.2,0.2-0.2s-0.1-0.1-0.2-0.2L9.6,0.7C9.5,0.6,9.4,0.5,9.4,0.5
						c0,0,0,0,0,0c0,0,0,0,0,0c0,0,0,0,0,0c0,0,0,0,0,0c0,0-0.1,0.1-0.2,0.2L6.2,3.6c-0.1,0.1-0.1,0.2,0,0.3L6.7,4.3z"/>
				</g>
			</g>
		</g>
	</g>
</g>
</svg>
